# xmcd
#
# Track frame offsets:
#	150
#	30230
#	54845
#	74739
#	103491
#	136543
#	185219
#	209022
#	233520
#	270772
#
# Disc length: 4087 seconds
#
# Revision: 1
# Processed by: cddbd v1.5.1PL2 Copyright (c) Steve Scherf et al.
# Submitted via: EasyCDDAExtractor 9.0.0.1
#
DISCID=890ff50a
DTITLE=Whitenake - Regal Theatre Ashington 07-05-78
DYEAR=1978
DGENRE=Hard Rock
TTITLE0=Lady 
TTITLE1=Lady Luck
TTITLE2=Come On
TTITLE3=Ain't No Love In The Heart Of The City
TTITLE4=Steal Away
TTITLE5=Mistreated
TTITLE6=Belgian Tom's Hat Trick
TTITLE7=Lady Double Dealer
TTITLE8=Breakdown
TTITLE9=Rock Me Baby
EXTD=
EXTT0=
EXTT1=
EXTT2=
EXTT3=
EXTT4=
EXTT5=
EXTT6=
EXTT7=
EXTT8=
EXTT9=
PLAYORDER=
